<?xml version="1.0" ?><svg data-name="Layer 1" id="Layer_1" viewBox="0 0 100 100" xmlns="http://www.w3.org/2000/svg"><title/><path d="M71.64,12.23V5H27.43v7.2H10.79V32.63h0a20.1,20.1,0,0,0,22.85,19.9c2.86,4.44,6.54,7.69,10.68,9.19v16H37.88v6H32.66L27,95H72L66.41,83.75H61.19v-6H54.75v-16c4.14-1.5,7.82-4.75,10.68-9.19a20.1,20.1,0,0,0,22.85-19.9h0V12.23Zm0,8.44h8.21V32.56A11.84,11.84,0,0,1,69.35,44.2a47,47,0,0,0,2.29-14.7ZM29.72,44.2a11.84,11.84,0,0,1-10.5-11.64V20.67h8.21V29.5A47,47,0,0,0,29.72,44.2ZM31,49.9A17.47,17.47,0,0,1,13.6,32.6V15H27.43v2.81h-11V32.58h0A14.61,14.61,0,0,0,30.8,47.08q.6,1.44,1.3,2.78C31.74,49.88,31.39,49.9,31,49.9ZM64.67,86.56l2.81,5.63H31.59l2.81-5.62H64.67Zm-6.29-2.81H40.69V80.53H58.38Zm-6.44-6H47.13V62.46a14.64,14.64,0,0,0,4.81,0ZM49.54,59.84c-4.93,0-9.65-3-13.29-8.46-3.87-5.81-6-13.58-6-21.89V7.84H68.83V29.5c0,8.31-2.13,16.08-6,21.89C59.19,56.84,54.47,59.84,49.54,59.84ZM85.47,32.36v.25A17.47,17.47,0,0,1,68,49.9c-.36,0-.71,0-1.07,0q.69-1.34,1.3-2.78a14.61,14.61,0,0,0,14.38-14.5h0V17.86h-11V15H85.47Z"/></svg>